<svg xmlns="http://www.w3.org/2000/svg" width="118" height="18" viewBox="0 0 118 18" fill="none">
<path fill-rule="evenodd" clip-rule="evenodd" d="M106.422 14.5643C106.085 14.6473 105.651 14.6888 105.121 14.6888C104.061 14.6888 103.162 14.5809 102.423 14.3651C101.701 14.1328 101.09 13.8755 100.592 13.5934L99.5325 16.6805C99.7573 16.8133 100.03 16.9544 100.352 17.1037C100.689 17.2531 101.082 17.3942 101.532 17.527C101.998 17.6597 102.528 17.7676 103.122 17.8506C103.716 17.9502 104.383 18 105.121 18C107.321 18 108.968 17.5602 110.06 16.6805C111.152 15.7842 111.698 14.5311 111.698 12.9212C111.698 12.0913 111.593 11.3859 111.384 10.805C111.176 10.2241 110.855 9.71784 110.421 9.28631C110.003 8.85477 109.473 8.48133 108.831 8.16598C108.189 7.83403 107.434 7.50207 106.567 7.17012C106.149 7.02075 105.764 6.87967 105.41 6.74689C105.073 6.59751 104.768 6.43983 104.495 6.27386C104.238 6.09129 104.037 5.89212 103.893 5.67635C103.748 5.46058 103.676 5.19502 103.676 4.87967C103.676 4.34855 103.869 3.95851 104.254 3.70954C104.656 3.44398 105.306 3.3112 106.205 3.3112C107.008 3.3112 107.691 3.41079 108.253 3.60996C108.831 3.79253 109.353 4.0083 109.819 4.25726L110.903 1.19502C110.373 0.896266 109.698 0.622407 108.879 0.373445C108.06 0.124482 107.089 0 105.964 0C105.017 0 104.166 0.124482 103.411 0.373445C102.656 0.60581 102.014 0.946059 101.484 1.39419C100.954 1.84232 100.544 2.39004 100.255 3.03735C99.9661 3.66805 99.8216 4.38174 99.8216 5.17842C99.8216 5.9751 99.9581 6.6556 100.231 7.21992C100.504 7.76764 100.857 8.24066 101.291 8.639C101.725 9.02075 102.214 9.3444 102.76 9.60996C103.307 9.85892 103.853 10.083 104.399 10.2822C105.651 10.7137 106.534 11.1203 107.048 11.5021C107.562 11.8672 107.819 12.332 107.819 12.8963C107.819 13.1618 107.779 13.4025 107.699 13.6183C107.619 13.834 107.474 14.0249 107.265 14.1909C107.056 14.3402 106.775 14.4647 106.422 14.5643ZM4.36017 14.5394C4.13534 14.5228 3.9346 14.5062 3.75794 14.4896V3.58506C3.99883 3.55187 4.25579 3.53527 4.5288 3.53527C4.80181 3.51867 5.0668 3.51037 5.32375 3.51037C7.20272 3.51037 8.57581 3.9751 9.44303 4.90457C10.3102 5.83403 10.7439 7.20332 10.7439 9.01245C10.7439 10.7386 10.2862 12.0913 9.37076 13.0705C8.47142 14.0498 7.08227 14.5394 5.2033 14.5394H4.36017ZM13.9477 12.9212C14.3974 11.8091 14.6222 10.5062 14.6222 9.01245C14.6222 7.45228 14.3974 6.11618 13.9477 5.00415C13.4981 3.89212 12.8557 2.97925 12.0206 2.26556C11.1855 1.55187 10.1818 1.02905 9.00942 0.697095C7.85313 0.365145 6.56034 0.199171 5.13103 0.199171C4.45653 0.199171 3.64552 0.232366 2.69801 0.298756C1.76655 0.348549 0.867217 0.456433 0 0.622407V17.4274C0.867217 17.61 1.75049 17.7261 2.64983 17.7759C3.54917 17.8423 4.33608 17.8755 5.01059 17.8755C6.48807 17.8755 7.82101 17.6929 9.00942 17.3278C10.1978 16.9627 11.2016 16.4149 12.0206 15.6846C12.8557 14.9544 13.4981 14.0332 13.9477 12.9212ZM17.7612 0.398341V17.6515H29.5891V14.39H21.5191V10.2324H28.1919V7.04564H21.5191V3.65975H29.035V0.398341H17.7612ZM43.5234 14.3154V17.6515H32.3701V0.398341H36.128V14.3154H43.5234ZM49.7018 0.398341H45.9439V17.6515H49.7018V0.398341ZM63.4184 17.6515C63.0812 17.0871 62.6797 16.4813 62.214 15.834C61.7643 15.1701 61.2664 14.5145 60.7204 13.8672C60.1905 13.2033 59.6364 12.5726 59.0583 11.9751C58.4801 11.361 57.902 10.8216 57.3238 10.3568V17.6515H53.5659V0.398341H57.3238V6.92116C58.3035 5.85892 59.2831 4.75519 60.2627 3.60996C61.2584 2.44813 62.1818 1.37759 63.033 0.398341H67.4895C66.3493 1.79253 65.201 3.13693 64.0448 4.43154C62.9045 5.72614 61.7001 7.02905 60.4314 8.34025C61.7643 9.48548 63.0491 10.8465 64.2856 12.4232C65.5383 14 66.7347 15.7427 67.875 17.6515H63.4184ZM70.0332 0.398341V17.6515H81.8611V14.39H73.7912V10.2324H80.4639V7.04564H73.7912V3.65975H81.307V0.398341H70.0332ZM90.996 7.49378C91.6705 6.31535 92.3129 5.13693 92.9232 3.95851C93.5335 2.78008 94.0955 1.59336 94.6094 0.398341H98.7528C97.8374 2.25726 96.8899 4.05809 95.9103 5.80083C94.9306 7.54357 93.8948 9.29461 92.8027 11.0539V17.6515H89.0448V11.1037C87.9527 9.3444 86.9089 7.58506 85.9132 5.82573C84.9336 4.06639 83.986 2.25726 83.0706 0.398341H87.4308C87.9447 1.59336 88.4988 2.78008 89.093 3.95851C89.6872 5.13693 90.3215 6.31535 90.996 7.49378ZM118 14.332H114.788V17.6515H118V14.332Z" fill="#221616"/>
</svg>