


<?xml version="1.0" encoding="iso-8859-1"?>
<!-- Uploaded to: SVG Repo, www.svgrepo.com, Generator: SVG Repo Mixer Tools -->
<svg
	width="24"
	height="24"
	viewBox="0 0 24 24"
	fill="none"
	xmlns="http://www.w3.org/2000/svg"
>
	<path
		fillRule="evenodd"
		clipRule="evenodd"
		d="M12 1.12695C11.496 1.12695 11.001 1.25942 10.5644 1.51106L7.34941 3.34817C7.1525 3.38271 6.96847 3.48419 6.83374 3.64283L3.56587 5.51018L3.5625 5.51213C3.20443 5.71886 2.8961 5.99984 2.65759 6.33499C2.60233 6.3892 2.55341 6.4517 2.51276 6.52197C2.47752 6.5829 2.45044 6.64631 2.43119 6.71093C2.23065 7.11009 2.12546 7.5518 2.125 7.9999V16.0008C2.12552 16.505 2.25861 17.0001 2.51091 17.4366C2.76322 17.8731 3.12588 18.2356 3.5625 18.4877L3.56588 18.4896L10.5625 22.4877L10.5642 22.4887C10.8745 22.6675 11.2143 22.7862 11.5659 22.8399C11.6938 22.9131 11.842 22.955 12 22.955C12.158 22.955 12.3062 22.9131 12.4341 22.8399C12.7857 22.7862 13.1256 22.6675 13.4359 22.4886L13.4375 22.4877L20.4341 18.4896L20.4375 18.4877C20.8741 18.2356 21.2368 17.8731 21.4891 17.4366C21.7414 17.0001 21.8745 16.5041 21.875 15.9999V7.999C21.8745 7.55148 21.7696 7.11105 21.5696 6.71245C21.5503 6.6473 21.5231 6.58338 21.4876 6.52197C21.4467 6.45124 21.3974 6.38839 21.3417 6.33393C21.1032 5.99924 20.7952 5.71864 20.4375 5.51212L13.4375 1.51213L13.4357 1.51109C12.9991 1.25943 12.504 1.12695 12 1.12695ZM12.875 20.7936L19.5625 16.9721L19.564 16.9713C19.7342 16.8727 19.8756 16.7311 19.974 16.5609C20.0727 16.39 20.1248 16.1963 20.125 15.999V8.32102L12.875 12.5149V20.7936ZM11.125 12.5147L3.875 8.32083V15.9994C3.87527 16.1965 3.92735 16.3902 4.02601 16.5609C4.12445 16.7311 4.26581 16.8727 4.43599 16.9713L4.4375 16.9721L11.125 20.7935V12.5147ZM12.5625 3.02768L19.2121 6.82742L16.5055 8.3931L9.30972 4.24356L11.4341 3.02962L11.4375 3.02767C11.6085 2.92894 11.8025 2.87695 12 2.87695C12.1975 2.87695 12.3915 2.92894 12.5625 3.02768ZM12.0002 10.9993L14.7566 9.40474L7.55017 5.24902L4.7881 6.82733L12.0002 10.9993Z"

                  />
</svg>